<svg width="1718" height="111" viewBox="0 0 1718 111" fill="none" xmlns="http://www.w3.org/2000/svg">
<path fill-rule="evenodd" clip-rule="evenodd" d="M-4 0L67.3016 4.17052C139.948 8.34104 282.552 16.6821 426.5 30.7977C570.448 45.2341 713.052 65.7659 857 69.9364C1000.95 74.1069 1143.55 61.5954 1287.5 57.7457C1431.45 53.5751 1574.05 57.7457 1646.7 59.6705L1718 61.5954V111H1646.7C1574.05 111 1431.45 111 1287.5 111C1143.55 111 1000.95 111 857 111C713.052 111 570.448 111 426.5 111C282.552 111 139.948 111 67.3016 111H-4V0Z" fill="#5d5a69"/>
<path fill-rule="evenodd" clip-rule="evenodd" d="M-4 44.4L53.4 53.28C110.8 62.16 225.6 79.92 340.4 75.48C455.2 71.04 570 44.4 684.8 26.64C799.6 8.88 914.4 0 1029.2 0C1144 0 1258.8 8.88 1373.6 24.42C1488.4 39.96 1603.2 62.16 1660.6 73.26L1718 84.36V111H1660.6C1603.2 111 1488.4 111 1373.6 111C1258.8 111 1144 111 1029.2 111C914.4 111 799.6 111 684.8 111C570 111 455.2 111 340.4 111C225.6 111 110.8 111 53.4 111H-4V44.4Z" fill="#353144" fill-opacity="0.5"/>
</svg>
